<svg id="Layer_3" enable-background="new 0 0 64 64" height="512" viewBox="0 0 64 64" width="512" xmlns="http://www.w3.org/2000/svg"><path d="m32 47c-10.436 0-21-2.404-21-7s10.564-7 21-7 21 2.404 21 7-10.564 7-21 7zm0-12c-11.771 0-19 2.912-19 5s7.229 5 19 5 19-2.912 19-5-7.229-5-19-5z" fill="#78b75b"/><g fill="#4d5d7a"><path d="m13 15.479h2v12.042h-2z" transform="matrix(.747 -.664 .664 .747 -10.748 14.732)"/><path d="m43.979 20.5h12.042v2h-12.042z" transform="matrix(.665 -.747 .747 .665 .704 44.569)"/><path d="m8.185 42h10.63v2.001h-10.63z" transform="matrix(.658 -.753 .753 .658 -27.752 24.848)"/><path d="m49.5 37.685h2.001v10.63h-2.001z" transform="matrix(.753 -.659 .659 .753 -15.821 43.894)"/></g><circle cx="10" cy="10" fill="#f5b953" r="8"/><circle cx="10" cy="10" fill="#f9d18b" r="5"/><circle cx="54" cy="10" fill="#f5b953" r="8"/><circle cx="54" cy="10" fill="#f9d18b" r="5"/><circle cx="54" cy="54" fill="#f5b953" r="8"/><circle cx="54" cy="54" fill="#f9d18b" r="5"/><circle cx="10" cy="54" fill="#f5b953" r="8"/><circle cx="10" cy="54" fill="#f9d18b" r="5"/><path d="m11 5h-2v2h-1c-.404 0-.77.244-.924.617-.155.374-.069.804.217 1.09l2.293 2.293h-2.586v2h2v2h2v-2h1c.404 0 .77-.244.924-.617.155-.374.069-.804-.217-1.09l-2.293-2.293h2.586v-2h-2z" fill="#f5b953"/><path d="m55 7v-2h-2v2h-1c-.404 0-.77.244-.924.617-.155.374-.069.804.217 1.09l2.293 2.293h-2.586v2h2v2h2v-2h1c.404 0 .77-.244.924-.617.155-.374.069-.804-.217-1.09l-2.293-2.293h2.586v-2z" fill="#f5b953"/><path d="m11 49h-2v2h-1c-.404 0-.77.244-.924.617-.155.374-.069.804.217 1.09l2.293 2.293h-2.586v2h2v2h2v-2h1c.404 0 .77-.244.924-.617.155-.374.069-.804-.217-1.09l-2.293-2.293h2.586v-2h-2z" fill="#f5b953"/><path d="m55 49h-2v2h-1c-.404 0-.77.244-.924.617-.155.374-.069.804.217 1.09l2.293 2.293h-2.586v2h2v2h2v-2h1c.404 0 .77-.244.924-.617.155-.374.069-.804-.217-1.09l-2.293-2.293h2.586v-2h-2z" fill="#f5b953"/><path d="m26 26c-2.209 0-4-1.791-4-4v-6c0-2.209 1.791-4 4-4h12c2.209 0 4 1.791 4 4v6c0 2.209-1.791 4-4 4" fill="#78b75b"/><path d="m26 24v14h4v-10h4v10h4v-14" fill="#4d5d7a"/><path d="m32 10c-1.657 0-3-1.343-3-3v-2c0-1.657 1.343-3 3-3 1.657 0 3 1.343 3 3v2c0 1.657-1.343 3-3 3z" fill="#efbe9a"/><path d="m38 26v-4h4c0 2.209-1.791 4-4 4z" fill="#efbe9a"/><path d="m26 26v-4h-4c0 2.209 1.791 4 4 4z" fill="#efbe9a"/><path d="m24 42h6v-4h-4c-1.105 0-2 .895-2 2z" fill="#78b75b"/><path d="m40 42h-6v-4h4c1.105 0 2 .895 2 2z" fill="#78b75b"/></svg>