<svg height="512pt" viewBox="-98 0 511 512" width="512pt" xmlns="http://www.w3.org/2000/svg"><path d="m88.265625 292.585938h140.425781c48.46875 0 87.761719 39.292968 87.761719 87.765624v131.648438h-315.953125v-131.648438c0-48.472656 39.292969-87.765624 87.765625-87.765624zm0 0" fill="#4d4d4d"/><path d="m140.925781 423.972656 17.550781 35.367188 17.554688-35.367188 64.699219-130.507812c-3.988281-.570313-8.011719-.863282-12.039063-.878906h-140.425781c-4.03125.015624-8.058594.308593-12.050781.878906zm0 0" fill="#29abe2"/><g fill="#333"><path d="m53.160156 415.457031h17.550782v96.542969h-17.550782zm0 0"/><path d="m149.699219 415.457031h17.554687v96.542969h-17.554687zm0 0"/><path d="m246.242188 415.457031h17.554687v96.542969h-17.554687zm0 0"/><path d="m184.808594 476.894531h17.550781v17.550781h-17.550781zm0 0"/></g><path d="m140.925781 371.574219-8.777343-26.328125 26.328124-26.328125 26.332032 26.328125-8.777344 26.328125zm0 0" fill="#4d4d4d"/><path d="m176.03125 371.574219v52.398437l-17.554688 35.367188-17.550781-35.367188v-52.398437zm0 0" fill="#333"/><path d="m272.570312 73.175781v148.234375c0 23.273438-8.324218 45.78125-23.476562 63.453125-18.519531 21.617188-45.5625 34.054688-74.027344 34.054688h-33.175781c-28.464844 0-55.507813-12.4375-74.03125-34.054688-15.148437-17.671875-23.476563-40.179687-23.476563-63.453125v-148.234375zm0 0" fill="#f2c09a"/><path d="m158.476562 222.375h-8.777343c-4.84375 0-8.773438-3.929688-8.773438-8.777344s3.929688-8.777344 8.773438-8.777344h8.777343v-35.105468c0-9.695313 7.859376-17.550782 17.554688-17.550782h43.882812c4.847657 0 8.777344 3.929688 8.777344 8.773438 0 4.847656-3.929687 8.777344-8.777344 8.777344h-43.882812v35.105468c0 9.695313-7.859375 17.554688-17.554688 17.554688zm0 0" fill="#a67c52"/><path d="m132.148438 169.714844h-35.105469c-4.847657 0-8.777344-3.929688-8.777344-8.777344 0-4.84375 3.929687-8.773438 8.777344-8.773438h35.105469c4.847656 0 8.777343 3.929688 8.777343 8.773438 0 4.847656-3.929687 8.777344-8.777343 8.777344zm0 0" fill="#a67c52"/><path d="m272.570312 152.164062h8.777344c14.542969 0 26.332032 11.785157 26.332032 26.328126 0 14.542968-11.789063 26.328124-26.332032 26.328124h-8.777344zm0 0" fill="#cc9c72"/><path d="m44.382812 204.820312h-8.777343c-14.539063 0-26.328125-11.785156-26.328125-26.328124 0-14.542969 11.789062-26.328126 26.328125-26.328126h8.777343zm0 0" fill="#cc9c72"/><path d="m123.371094 187.269531c0 4.847657-3.929688 8.777344-8.777344 8.777344s-8.773438-3.929687-8.773438-8.777344c0-4.847656 3.925782-8.777343 8.773438-8.777343s8.777344 3.929687 8.777344 8.777343zm0 0" fill="#a67c52"/><path d="m211.136719 187.269531c0 4.847657-3.929688 8.777344-8.777344 8.777344s-8.777344-3.929687-8.777344-8.777344c0-4.847656 3.929688-8.777343 8.777344-8.777343s8.777344 3.929687 8.777344 8.777343zm0 0" fill="#a67c52"/><path d="m167.253906 292.585938h-17.554687c-4.84375 0-8.773438-3.929688-8.773438-8.777344 0-4.84375 3.929688-8.773438 8.773438-8.773438h17.554687c4.847656 0 8.777344 3.929688 8.777344 8.773438 0 4.847656-3.929688 8.777344-8.777344 8.777344zm0 0" fill="#a67c52"/><path d="m97.042969 415.457031 17.550781-35.105469-43.882812-17.550781v-68.457031c1.800781-.386719 3.613281-.679688 5.441406-.878906l82.324218 165.875zm0 0" fill="#666"/><path d="m219.914062 415.457031-17.554687-35.105469 43.882813-17.550781v-68.457031c-1.796876-.386719-3.613282-.679688-5.441407-.878906l-82.324219 165.875zm0 0" fill="#666"/><path d="m94.1875 284.863281c-15.148438-17.671875-23.476562-40.179687-23.476562-63.453125v-95.578125h-26.328126v95.578125c.003907 53.847656 43.65625 97.5 97.507813 97.507813h26.328125c-28.464844 0-55.507812-12.4375-74.03125-34.054688zm0 0" fill="#e8b894"/><path d="m272.570312 73.175781v78.988281l-35.105468-26.332031v-52.65625zm0 0" fill="#534741"/><path d="m79.488281 64.398438v61.433593l-35.105469 26.332031v-87.765624zm0 0" fill="#534741"/><path d="m44.382812 81.949219v-46.847657c.003907-19.390624 15.722657-35.10546825 35.109376-35.101562 1.785156 0 3.570312.136719 5.332031.40625l143.058593 22.011719c25.707032 3.9375 44.691407 26.050781 44.691407 52.054687v7.476563zm0 0" fill="#3e3531"/></svg>