<svg height="512pt" viewBox="-20 0 512 512.0011" width="512pt" xmlns="http://www.w3.org/2000/svg"><path d="m59.917969 89.421875v255.136719h243.472656v-255.136719c0-52.585937-45.160156-93.816406-97.527344-89.046875l-17.046875 1.554688c-4.765625.433593-9.5625.433593-14.324218 0l-17.050782-1.554688c-52.367187-4.769531-97.523437 36.460938-97.523437 89.046875zm0 0" fill="#fdbd37"/><path d="m205.863281.375-17.046875 1.554688c-1.984375.179687-3.972656.265624-5.964844.296874 39.464844 9.003907 69.480469 44.324219 69.480469 87.191407v255.140625h51.054688v-255.136719c0-52.585937-45.15625-93.816406-97.523438-89.046875zm0 0" fill="#fa9a39"/><path d="m330.226562 326.550781c-28.425781-14.429687-58.429687-24.460937-89.050781-30.105469-11.851562-2.183593-20.441406-12.542968-20.441406-24.597656v-47.820312h-78.164063v47.820312c0 12.054688-8.585937 22.414063-20.441406 24.597656-30.621094 5.644532-60.625 15.675782-89.050781 30.105469-20.292969 10.300781-33.078125 31.128907-33.078125 53.886719v119.53125c0 6.644531 5.386719 12.03125 12.035156 12.03125h351.269532v-131.5625c0-22.757812-12.785157-43.585938-33.078126-53.886719zm0 0" fill="#fed6a6"/><path d="m330.226562 326.550781c-28.425781-14.429687-58.429687-24.460937-89.050781-30.105469-11.851562-2.183593-20.441406-12.542968-20.441406-24.597656v-47.820312h-50.761719v80.527344c0 12.054687 8.589844 22.414062 20.441406 24.597656 30.621094 5.644531 60.625 15.679687 89.050782 30.109375 20.292968 10.300781 33.078125 31.128906 33.078125 53.886719v98.851562h50.761719v-131.5625c0-22.757812-12.785157-43.585938-33.078126-53.886719zm0 0" fill="#efc79c"/><path d="m330.226562 326.550781c-28.425781-14.429687-58.429687-24.460937-89.050781-30.105469-5.175781-.953124-9.730469-3.46875-13.21875-7.003906l-19.636719 70.085938c-16.554687 9.332031-36.78125 9.332031-53.335937 0l-19.636719-70.085938c-3.488281 3.535156-8.042968 6.050782-13.222656 7.003906-30.617188 5.644532-60.621094 15.675782-89.046875 30.105469-20.292969 10.300781-33.078125 31.128907-33.078125 53.886719v119.53125c0 6.644531 5.386719 12.03125 12.035156 12.03125h351.265625v-131.929688c.003907-22.664062-12.800781-43.382812-33.074219-53.519531zm0 0" fill="#51a1c8"/><path d="m330.226562 326.550781c-28.425781-14.429687-58.429687-24.460937-89.050781-30.105469-5.175781-.953124-9.730469-3.46875-13.21875-7.003906l-12.695312 45.308594c21.988281 5.847656 43.515625 14.007812 64.203125 24.507812 20.292968 10.300782 33.074218 31.128907 33.074218 53.886719v98.855469h50.761719v-131.5625c.003907-22.757812-12.78125-43.585938-33.074219-53.886719zm0 0" fill="#4497b7"/><path d="m95.949219 113.613281h-14.210938c-12.058593 0-21.820312 9.777344-21.820312 21.835938v10.328125c0 12.058594 9.761719 21.835937 21.820312 21.835937h14.210938zm0 0" fill="#fed6a6"/><path d="m267.355469 113.613281h14.210937c12.058594 0 21.820313 9.777344 21.820313 21.835938v10.328125c0 12.058594-9.761719 21.835937-21.820313 21.835937h-14.210937zm0 0" fill="#fed6a6"/><path d="m179.207031 61.53125c-33.292969 31.652344-74.925781 39.109375-86.515625 40.621094-1.785156.234375-3.113281 1.761718-3.105468 3.5625l.285156 74.007812c0 61.015625 64.050781 89.746094 91.78125 90.339844 27.730468-.59375 91.785156-29.324219 91.785156-90.339844l.28125-74.007812c.007812-1.800782-1.320312-3.328125-3.105469-3.5625-11.585937-1.511719-53.222656-8.96875-86.515625-40.621094-1.367187-1.300781-3.523437-1.300781-4.890625 0zm0 0" fill="#ffe3c2"/><path d="m270.613281 102.152344c-7.300781-.953125-26.539062-4.273438-48.097656-14.515625l-.125 92.082031c0 46.03125-36.449219 73.683594-66.261719 84.746094 9.707032 3.601562 18.710938 5.453125 25.523438 5.597656 27.730468-.59375 91.785156-29.324219 91.785156-90.34375l.28125-74.003906c.007812-1.800782-1.320312-3.328125-3.105469-3.5625zm0 0" fill="#f7d6b5"/><path d="m189.820312 187.214844h-6.765624c-6.039063 0-10.953126-4.914063-10.953126-10.957032v-20.519531c0-4.269531 3.460938-7.726562 7.726563-7.726562 4.269531 0 7.726563 3.457031 7.726563 7.726562v16.023438h2.265624c4.265626 0 7.722657 3.457031 7.722657 7.726562 0 4.265625-3.457031 7.726563-7.722657 7.726563zm0 0" fill="#d08f61"/><path d="m181.65625 231.753906c-15.738281 0-30-7.09375-37.21875-18.503906-2.28125-3.609375-1.207031-8.378906 2.398438-10.660156 3.605468-2.28125 8.375-1.207032 10.660156 2.394531 4.347656 6.875 13.832031 11.316406 24.160156 11.316406s19.8125-4.441406 24.160156-11.316406c2.28125-3.601563 7.054688-4.675781 10.660156-2.394531 3.609376 2.28125 4.679688 7.050781 2.398438 10.660156-7.21875 11.410156-21.484375 18.503906-37.21875 18.503906zm0 0" fill="#c35f58"/><path d="m228.636719 153.722656c-4.269531 0-7.726563-3.457031-7.726563-7.726562v-9.347656c0-4.269532 3.460938-7.726563 7.726563-7.726563 4.269531 0 7.726562 3.457031 7.726562 7.726563v9.347656c0 4.269531-3.457031 7.726562-7.726562 7.726562zm0 0" fill="#844535"/><path d="m134.667969 153.722656c-4.269531 0-7.726563-3.457031-7.726563-7.726562v-9.347656c0-4.269532 3.460938-7.726563 7.726563-7.726563 4.269531 0 7.726562 3.457031 7.726562 7.726563v9.347656c0 4.269531-3.457031 7.726562-7.726562 7.726562zm0 0" fill="#844535"/><path d="m181.652344 454.714844-46.304688-165.273438s-14.929687.914063-26.214844 4.554688c-4.949218 1.597656-9.101562 4.304687-12.050781 7.65625l-24.898437 28.292968c-1.609375 1.832032-.882813 4.710938 1.402344 5.558594l37.285156 13.816406c2.070312.765626 2.910156 3.242188 1.734375 5.113282l-9.660157 15.332031c-.855468 1.355469-.671874 3.121094.445313 4.273437zm0 0" fill="#3990b2"/><path d="m181.652344 454.714844 46.304687-165.273438s14.929688.914063 26.214844 4.554688c4.949219 1.597656 9.101563 4.304687 12.050781 7.65625l24.898438 28.292968c1.609375 1.832032.882812 4.710938-1.402344 5.558594l-37.285156 13.816406c-2.070313.765626-2.910156 3.242188-1.734375 5.113282l9.664062 15.332031c.851563 1.355469.667969 3.121094-.449219 4.273437zm0 0" fill="#3990b2"/><path d="m154.984375 359.527344 26.667969 95.1875 26.667968-95.1875c-16.554687 9.332031-36.78125 9.332031-53.335937 0zm0 0" fill="#fc6a58"/><path d="m393.71875 375.738281c-4.269531 0-7.726562-3.457031-7.726562-7.726562v-32.078125c0-1.984375-2.277344-3.660156-4.96875-3.660156h-48.292969c-2.695313 0-4.96875 1.675781-4.96875 3.660156v32.078125c0 4.269531-3.460938 7.726562-7.726563 7.726562-4.269531 0-7.726562-3.457031-7.726562-7.726562v-32.078125c0-10.539063 9.160156-19.113282 20.421875-19.113282h48.292969c11.261718 0 20.421874 8.574219 20.421874 19.113282v32.078125c0 4.269531-3.460937 7.726562-7.726562 7.726562zm0 0" fill="#844535"/><path d="m447.515625 358.628906h-181.277344c-13.082031 0-23.6875 10.601563-23.6875 23.683594v106.003906c0 13.078125 10.605469 23.683594 23.6875 23.683594h181.273438c13.082031 0 23.6875-10.605469 23.6875-23.683594v-106.003906c0-13.082031-10.605469-23.683594-23.683594-23.683594zm0 0" fill="#d08f61"/><path d="m447.515625 358.628906h-47.769531c11.265625 0 20.398437 9.128906 20.398437 20.394532v112.582031c0 11.261719-9.132812 20.394531-20.398437 20.394531h47.769531c13.078125 0 23.683594-10.601562 23.683594-23.683594v-106.003906c0-13.082031-10.605469-23.683594-23.683594-23.683594zm0 0" fill="#c67f4f"/><path d="m471.175781 381.820312c-.265625-12.851562-10.746093-23.191406-23.660156-23.191406h-181.277344c-12.917969 0-23.398437 10.339844-23.664062 23.191406.527343 27.046876 22.601562 48.8125 49.769531 48.8125h129.058594c27.171875 0 49.246094-21.769531 49.773437-48.8125zm0 0" fill="#8b5f46"/><path d="m471.175781 381.820312c-.003906-.097656.003907-.207031.003907-.308593-.421876-12.710938-10.851563-22.882813-23.664063-22.882813h-47.769531c11.265625 0 20.398437 9.128906 20.398437 20.394532v51.609374h1.261719c27.167969 0 49.242188-21.769531 49.769531-48.8125zm0 0" fill="#844535"/><path d="m377.496094 443.132812h-41.238282c-2.3125 0-4.1875-1.875-4.1875-4.1875v-16.628906c0-2.3125 1.875-4.1875 4.1875-4.1875h41.238282c2.308594 0 4.183594 1.875 4.183594 4.1875v16.628906c0 2.3125-1.875 4.1875-4.183594 4.1875zm0 0" fill="#e4ebf0"/></svg>